HIERARCHY
ROOT Hips
{
	OFFSET 0.000000 0.000007 97.120003
	CHANNELS 6 Xposition Yposition Zposition Yrotation Xrotation Zrotation
	JOINT RightUpLeg
	{
		OFFSET -11.000000 0.000000 0.000000
		CHANNELS 3 Yrotation Xrotation Zrotation
		JOINT RightLeg
		{
			OFFSET 0.000000 -0.000003 -45.062000
			CHANNELS 3 Yrotation Xrotation Zrotation
			JOINT RightFoot
			{
				OFFSET 0.000000 -0.000003 -42.057999
				CHANNELS 3 Yrotation Xrotation Zrotation
				End Site
				{
					OFFSET 0.000000 -15.120001 -9.999999
				}
			}
		}
	}
	JOINT LeftUpLeg
	{
		OFFSET 11.000000 0.000000 0.000000
		CHANNELS 3 Yrotation Xrotation Zrotation
		JOINT LeftLeg
		{
			OFFSET 0.000000 -0.000003 -45.062000
			CHANNELS 3 Yrotation Xrotation Zrotation
			JOINT LeftFoot
			{
				OFFSET 0.000000 -0.000003 -42.057999
				CHANNELS 3 Yrotation Xrotation Zrotation
				End Site
				{
					OFFSET 0.000000 -15.120001 -9.999999
				}
			}
		}
	}
	JOINT Spine
	{
		OFFSET 0.000000 0.000001 8.120003
		CHANNELS 3 Yrotation Xrotation Zrotation
		JOINT Spine1
		{
			OFFSET 0.000000 0.000001 17.979996
			CHANNELS 3 Yrotation Xrotation Zrotation
			JOINT Spine2
			{
				OFFSET 0.000000 0.000001 12.759995
				CHANNELS 3 Yrotation Xrotation Zrotation
				JOINT Neck
				{
					OFFSET 0.000000 0.000001 19.139999
					CHANNELS 3 Yrotation Xrotation Zrotation
					JOINT Neck1
					{
						OFFSET 0.000000 0.000000 4.250000
						CHANNELS 3 Yrotation Xrotation Zrotation
						JOINT Head
						{
							OFFSET 0.000000 0.000000 4.250000
							CHANNELS 3 Yrotation Xrotation Zrotation
							End Site
							{
								OFFSET 0.000000 0.000001 19.119995
							}
						}
					}
				}
				JOINT RightShoulder
				{
					OFFSET -2.900000 0.000001 13.339996
					CHANNELS 3 Yrotation Xrotation Zrotation
					JOINT RightArm
					{
						OFFSET -16.100000 0.000000 0.000000
						CHANNELS 3 Yrotation Xrotation Zrotation
						JOINT RightForeArm
						{
							OFFSET -28.000000 0.000000 0.000000
							CHANNELS 3 Yrotation Xrotation Zrotation
							JOINT RightHand
							{
								OFFSET -26.000000 0.000000 0.000000
								CHANNELS 3 Yrotation Xrotation Zrotation
								JOINT RightHandThumb1
								{
									OFFSET -1.936996 -2.518000 -0.483994
									CHANNELS 3 Yrotation Xrotation Zrotation
									JOINT RightHandThumb2
									{
										OFFSET -3.872002 0.000000 0.000000
										CHANNELS 3 Yrotation Xrotation Zrotation
										JOINT RightHandThumb3
										{
											OFFSET -2.690002 0.000000 0.000000
											CHANNELS 3 Yrotation Xrotation Zrotation
											End Site
											{
												OFFSET -2.537003 0.000000 0.000000
											}
										}
									}
								}
								JOINT RightInHandIndex
								{
									OFFSET -3.389000 -2.080000 0.535004
									CHANNELS 3 Yrotation Xrotation Zrotation
									JOINT RightHandIndex1
									{
										OFFSET -5.485001 -1.051000 -0.095993
										CHANNELS 3 Yrotation Xrotation Zrotation
										JOINT RightHandIndex2
										{
											OFFSET -3.806000 0.000000 0.000000
											CHANNELS 3 Yrotation Xrotation Zrotation
											JOINT RightHandIndex3
											{
												OFFSET -2.157997 0.000000 0.000000
												CHANNELS 3 Yrotation Xrotation Zrotation
												End Site
												{
													OFFSET -1.898003 0.000000 0.000000
												}
											}
										}
									}
								}
								JOINT RightInHandMiddle
								{
									OFFSET -3.556000 -0.796000 0.544006
									CHANNELS 3 Yrotation Xrotation Zrotation
									JOINT RightHandMiddle1
									{
										OFFSET -5.441002 -0.330000 -0.087997
										CHANNELS 3 Yrotation Xrotation Zrotation
										JOINT RightHandMiddle2
										{
											OFFSET -4.153000 0.000000 0.000000
											CHANNELS 3 Yrotation Xrotation Zrotation
											JOINT RightHandMiddle3
											{
												OFFSET -2.602997 0.000000 0.000000
												CHANNELS 3 Yrotation Xrotation Zrotation
												End Site
												{
													OFFSET -2.075996 0.000000 0.000000
												}
											}
										}
									}
								}
								JOINT RightInHandRing
								{
									OFFSET -3.539001 0.136000 0.565994
									CHANNELS 3 Yrotation Xrotation Zrotation
									JOINT RightHandRing1
									{
										OFFSET -4.873001 0.504000 -0.022995
										CHANNELS 3 Yrotation Xrotation Zrotation
										JOINT RightHandRing2
										{
											OFFSET -3.619003 0.000000 0.000000
											CHANNELS 3 Yrotation Xrotation Zrotation
											JOINT RightHandRing3
											{
												OFFSET -2.511002 0.000000 0.000000
												CHANNELS 3 Yrotation Xrotation Zrotation
												End Site
												{
													OFFSET -1.952003 0.000000 0.000000
												}
											}
										}
									}
								}
								JOINT RightInHandPinky
								{
									OFFSET -3.323997 1.264000 0.494003
									CHANNELS 3 Yrotation Xrotation Zrotation
									JOINT RightHandPinky1
									{
										OFFSET -4.353996 1.147000 -0.022995
										CHANNELS 3 Yrotation Xrotation Zrotation
										JOINT RightHandPinky2
										{
											OFFSET -2.898003 0.000000 0.000000
											CHANNELS 3 Yrotation Xrotation Zrotation
											JOINT RightHandPinky3
											{
												OFFSET -1.831001 0.000000 0.000000
												CHANNELS 3 Yrotation Xrotation Zrotation
												End Site
												{
													OFFSET -1.730003 0.000000 0.000000
												}
											}
										}
									}
								}
							}
						}
					}
				}
				JOINT LeftShoulder
				{
					OFFSET 2.900000 0.000001 13.339996
					CHANNELS 3 Yrotation Xrotation Zrotation
					JOINT LeftArm
					{
						OFFSET 16.100000 0.000000 0.000000
						CHANNELS 3 Yrotation Xrotation Zrotation
						JOINT LeftForeArm
						{
							OFFSET 28.000000 0.000000 0.000000
							CHANNELS 3 Yrotation Xrotation Zrotation
							JOINT LeftHand
							{
								OFFSET 26.000000 0.000000 0.000000
								CHANNELS 3 Yrotation Xrotation Zrotation
								JOINT LeftHandThumb1
								{
									OFFSET 1.936996 -2.518000 -0.483994
									CHANNELS 3 Yrotation Xrotation Zrotation
									JOINT LeftHandThumb2
									{
										OFFSET 3.872002 0.000000 0.000000
										CHANNELS 3 Yrotation Xrotation Zrotation
										JOINT LeftHandThumb3
										{
											OFFSET 2.690002 0.000000 0.000000
											CHANNELS 3 Yrotation Xrotation Zrotation
											End Site
											{
												OFFSET 2.537003 0.000000 0.000000
											}
										}
									}
								}
								JOINT LeftInHandIndex
								{
									OFFSET 3.389000 -2.080000 0.535004
									CHANNELS 3 Yrotation Xrotation Zrotation
									JOINT LeftHandIndex1
									{
										OFFSET 5.485001 -1.051000 -0.095993
										CHANNELS 3 Yrotation Xrotation Zrotation
										JOINT LeftHandIndex2
										{
											OFFSET 3.806000 0.000000 0.000000
											CHANNELS 3 Yrotation Xrotation Zrotation
											JOINT LeftHandIndex3
											{
												OFFSET 2.157997 0.000000 0.000000
												CHANNELS 3 Yrotation Xrotation Zrotation
												End Site
												{
													OFFSET 1.898003 0.000000 0.000000
												}
											}
										}
									}
								}
								JOINT LeftInHandMiddle
								{
									OFFSET 3.556000 -0.796000 0.544006
									CHANNELS 3 Yrotation Xrotation Zrotation
									JOINT LeftHandMiddle1
									{
										OFFSET 5.441002 -0.330000 -0.087997
										CHANNELS 3 Yrotation Xrotation Zrotation
										JOINT LeftHandMiddle2
										{
											OFFSET 4.153000 0.000000 0.000000
											CHANNELS 3 Yrotation Xrotation Zrotation
											JOINT LeftHandMiddle3
											{
												OFFSET 2.602997 0.000000 0.000000
												CHANNELS 3 Yrotation Xrotation Zrotation
												End Site
												{
													OFFSET 2.075996 0.000000 0.000000
												}
											}
										}
									}
								}
								JOINT LeftInHandRing
								{
									OFFSET 3.539001 0.136000 0.565994
									CHANNELS 3 Yrotation Xrotation Zrotation
									JOINT LeftHandRing1
									{
										OFFSET 4.873001 0.504000 -0.022995
										CHANNELS 3 Yrotation Xrotation Zrotation
										JOINT LeftHandRing2
										{
											OFFSET 3.619003 0.000000 0.000000
											CHANNELS 3 Yrotation Xrotation Zrotation
											JOINT LeftHandRing3
											{
												OFFSET 2.511002 0.000000 0.000000
												CHANNELS 3 Yrotation Xrotation Zrotation
												End Site
												{
													OFFSET 1.952003 0.000000 0.000000
												}
											}
										}
									}
								}
								JOINT LeftInHandPinky
								{
									OFFSET 3.323997 1.264000 0.494003
									CHANNELS 3 Yrotation Xrotation Zrotation
									JOINT LeftHandPinky1
									{
										OFFSET 4.353996 1.147000 -0.022995
										CHANNELS 3 Yrotation Xrotation Zrotation
										JOINT LeftHandPinky2
										{
											OFFSET 2.898003 0.000000 0.000000
											CHANNELS 3 Yrotation Xrotation Zrotation
											JOINT LeftHandPinky3
											{
												OFFSET 1.831001 0.000000 0.000000
												CHANNELS 3 Yrotation Xrotation Zrotation
												End Site
												{
													OFFSET 1.730003 0.000000 0.000000
												}
											}
										}
									}
								}
							}
						}
					}
				}
			}
		}
	}
}
MOTION
Frames: 4
Frame Time: 0.033367
-2.476140 -16.932123 100.650040 -6.514665 133.731634 -4.873203 0.827922 -136.951986 133.366028 -11.674473 -10.444429 70.210124 -7.956467 10.900651 154.303495 0.249047 -129.864668 -134.059757 0.303963 0.315921 -69.195328 -1.747655 5.755158 -157.667499 0.265250 -132.868462 1.949797 -0.000015 -25.590108 0.000002 -0.081586 19.259518 1.519496 3.033532 26.488749 5.452728 3.201965 -32.777149 10.412645 -6.750634 1.741529 -9.467340 -14.865022 5.753199 -1.940658 -50.652345 14.083601 -1.264088 0.000007 -0.000029 105.063998 293.745782 -46.869400 -336.427962 21.540351 55.408045 66.182382 -8.726800 -10.872655 -11.671550 169.965159 40.935817 -15.247164 0.000000 -0.000002 0.000002 -28.883784 17.782616 1.873926 -6.379561 1.873871 -0.834024 11.385698 -1.562369 2.692983 -0.000000 -0.000002 -0.000000 -33.484159 18.331123 2.047776 -37.437086 3.407743 -1.626775 11.520376 1.187767 2.950510 0.000000 0.000001 0.000001 -35.024046 19.258596 4.541729 -71.933619 2.889354 -1.745859 11.456608 -0.248082 0.589469 -0.000002 0.000001 -0.000000 -34.932142 17.600617 5.790963 -70.348360 1.462165 1.385024 11.576049 -2.423861 -2.761688 14.861047 5.753251 1.940443 52.993232 25.479160 -0.617296 -0.000040 0.000092 -58.723842 63.624967 -48.529901 -32.037296 -61.210550 66.490737 -74.031840 16.228260 -15.753486 -17.081748 -74.282248 57.845507 21.918999 0.000001 0.000002 -0.000002 12.897552 17.187845 4.856889 11.358511 8.611325 -0.672096 -22.381106 -5.518779 -7.797342 0.000001 0.000001 -0.000001 10.906239 15.028055 -2.131440 11.495981 3.982019 0.530276 -20.278927 -1.481655 -4.500552 0.000001 0.000003 0.000000 11.786415 16.062588 1.182585 11.239786 6.725481 -1.872450 -5.142619 -4.209535 -4.587618 0.000001 -0.000000 -0.000001 11.519202 14.599536 0.238191 10.964441 5.982737 -4.735697 351.231550 -5.679085 -0.306786 
-2.595840 -16.658934 100.525047 -6.601540 133.591124 -4.911848 0.845962 -137.628080 133.357408 -12.689039 -11.367910 70.382210 -8.246542 11.360222 154.209634 0.280030 -129.890445 -134.082679 0.303092 0.314546 -69.155795 -1.880160 5.624648 -157.688468 0.232074 -132.809408 2.115244 -0.000022 -25.590108 -0.000003 -0.063139 19.284505 1.631460 4.264403 26.802765 6.533759 3.193240 -32.783713 10.423412 -6.709704 2.142860 -9.494671 -14.865808 5.767465 -1.886637 -50.373926 20.100658 -2.927321 0.000017 -0.000080 94.976683 296.110502 -36.155518 -337.239306 21.483761 54.400718 63.980834 -5.506960 -10.286909 -11.648956 170.984565 37.982190 -14.599085 -0.000003 -0.000001 -0.000000 -24.658320 18.211330 6.393295 -6.238950 2.052857 -0.497202 11.380022 -1.698684 2.667910 -0.000004 0.000002 -0.000000 -28.433912 19.086549 6.919051 -43.253498 3.787472 -1.829493 9.616216 1.439186 2.932719 -0.000003 0.000005 -0.000001 -30.384407 19.894420 8.601550 -74.535259 3.147174 -1.832591 11.456717 -0.226802 0.613492 -0.000004 0.000001 0.000002 -29.987918 18.247819 9.460303 -70.736554 1.743355 1.503763 11.585695 -2.620088 -2.766020 14.860255 5.738985 1.994461 54.254873 22.827472 0.157518 -0.000034 0.000077 -54.518232 64.781694 -43.755520 -31.432862 -61.301030 66.481674 -74.117046 16.209361 -15.643300 -17.127678 -74.057064 57.846791 21.919824 -0.000001 0.000004 -0.000003 12.958997 17.134069 5.078776 11.371343 8.698222 -0.580704 -22.196160 -5.531438 -7.909422 0.000001 0.000002 0.000000 10.953584 15.031387 -1.948684 11.495853 4.024971 0.522669 -19.875338 -1.502738 -4.544038 -0.000003 0.000004 -0.000001 11.844099 16.022027 1.394432 11.245036 6.800286 -1.807769 -4.637082 -4.197029 -4.716302 0.000001 0.000001 0.000000 11.566486 14.546630 0.427299 10.964499 6.059449 -4.675799 351.895007 -5.706749 -0.425974 
-2.798510 -16.554422 100.426041 -6.632827 133.580387 -4.714685 0.756556 -138.223235 133.387693 -13.505479 -12.103375 70.548628 -8.552521 11.756601 154.262473 0.183301 -129.933776 -134.012068 0.303972 0.315915 -69.195335 -2.000074 5.623384 -157.557711 0.219905 -132.755696 2.277720 -0.000031 -25.590101 0.000005 -0.052496 19.306322 1.747365 5.457834 27.302742 7.531693 3.186768 -32.788282 10.428395 -6.647156 2.537313 -9.510344 -14.865021 5.753192 -1.940662 -51.796384 23.465841 -4.530700 0.000005 0.000081 85.443085 298.302939 -28.820239 -339.685962 21.724713 53.560035 63.060063 -3.164845 -9.865308 -11.633525 171.653965 35.897893 -14.196707 0.000001 0.000000 -0.000000 -21.899571 18.619447 10.341832 -6.636578 2.249144 -0.230250 11.378572 -1.739056 2.653975 0.000001 -0.000000 -0.000000 -25.158556 19.463654 10.400561 -48.124663 4.068243 -2.088171 5.644692 1.534852 2.900548 0.000002 0.000005 -0.000001 -27.593184 20.256362 11.418983 -75.770198 3.348080 -1.885383 11.456786 -0.215982 0.630296 0.000001 -0.000000 -0.000000 -26.172626 18.509043 12.230739 -69.469519 2.007607 1.618936 11.593616 -2.790561 -2.759920 14.861045 5.753243 1.940435 55.979035 20.213077 1.164927 -0.000026 0.000055 -50.333727 65.155770 -38.795007 -30.578835 -61.389037 66.468935 -74.200300 16.191097 -15.535398 -17.174220 -73.840185 57.842188 21.916894 0.000001 -0.000005 0.000003 13.018923 17.080136 5.296779 11.379906 8.783743 -0.518980 -22.017274 -5.554513 -8.007178 -0.000000 -0.000003 0.000002 11.001568 15.033567 -1.763581 11.495776 4.068948 0.515978 -19.481702 -1.520589 -4.588160 -0.000003 0.000000 0.000003 11.901852 15.979502 1.607670 11.250889 6.874594 -1.739380 -4.142549 -4.178398 -4.845923 0.000000 -0.000005 0.000001 11.614057 14.491863 0.618980 10.965333 6.135745 -4.610212 352.547946 -5.725693 -0.547727 
-3.071159 -16.517523 100.349045 -6.836263 133.583283 -4.693739 0.681916 -138.642021 133.524434 -14.130026 -12.659952 70.714396 -8.876075 12.049710 154.186630 0.097785 -131.247563 -133.959366 2.236471 -1.542232 -69.238113 -1.624078 6.937421 -157.597886 0.218465 -132.725506 2.405582 -0.000023 -25.590106 -0.000003 -0.045120 19.317228 1.842994 5.844666 27.645039 7.803626 3.178546 -32.793596 10.431599 -6.569426 2.919842 -9.512677 -14.865012 5.753200 -1.940653 -54.182057 23.939354 -6.368759 0.000008 0.000027 78.655871 300.351777 -25.880034 -343.874097 22.212055 52.905129 63.446242 -1.624438 -9.557868 -11.622708 171.985898 34.820277 -14.004610 -0.000001 -0.000006 -0.000003 -20.678396 19.003314 12.976790 -7.538849 2.431679 -0.116223 11.380036 -1.705284 2.657281 -0.000002 -0.000002 -0.000004 -23.786718 19.825840 12.630073 -51.932698 4.260441 -2.343862 3.572605 1.592900 2.876018 -0.000000 -0.000002 -0.000004 -26.759471 20.640716 13.110654 -75.863259 3.505377 -1.902515 11.456910 -0.200440 0.641351 0.000000 -0.000007 -0.000002 -23.474805 18.598250 14.233727 -67.756665 2.222380 1.724086 11.024567 -2.867033 -2.745939 14.861045 5.753248 1.940443 57.828234 18.304352 2.335767 -0.000013 0.000049 -46.782138 64.922307 -34.303935 -29.876238 -61.469544 66.452673 -74.276989 16.172274 -15.427027 -17.219938 -73.627602 57.833377 21.911247 0.000001 -0.000004 -0.000003 13.077674 17.025882 5.512073 11.390963 8.867838 -0.442398 -21.849960 -5.562732 -8.109864 0.000002 -0.000002 0.000002 11.049770 15.034744 -1.577813 11.495259 4.113940 0.503335 -19.094841 -1.542090 -4.631155 0.000002 0.000002 0.000003 11.959385 15.935364 1.821388 11.256772 6.948390 -1.672495 -3.655259 -4.162937 -4.975132 0.000002 -0.000003 0.000000 11.661345 14.435507 0.811044 10.966472 6.211405 -4.544016 353.194109 -5.745010 -0.670584 
